# xmcd
#
# Track frame offsets:
#	150
#	22032
#	37540
#	53312
#	71287
#	88267
#	105982
#	120292
#	135107
#	154905
#	174582
#	191942
#	207762
#	227397
#	247090
#	262865
#
# Disc length: 3799 seconds
#
# Revision: 6
# Processed by: cddbd v1.5.2PL0 Copyright (c) Steve Scherf et al.
# Submitted via: EZCDAudioConverter 8.0.2.1
#
DISCID=bc0ed510
DTITLE=RICK and RENNER - GRANDES SUCESSOS [CD 2217-2) GLOBO CONTINENTAL
DYEAR=1999
DGENRE=SERTANEJO
TTITLE0=MIL VEZES CANTAREI (UNA Y MIL VECES) (BY GILMAR SINISTRO)
TTITLE1=ELA É DEMAIS (BY GILMAR SINISTRO)
TTITLE2=POUCAS E BOAS (BY GILMAR SINISTRO)
TTITLE3=DE MAL COM VOCÊ (BY GILMAR SINISTRO)
TTITLE4=BANDIDA (BY GILMAR SINISTRO)
TTITLE5=BABY (BY GILMAR SINISTRO)
TTITLE6=VOCÊ DECIDE (BY GILMAR SINISTRO)
TTITLE7=TIRA A ROUPA (BY GILMAR SINISTRO)
TTITLE8=TONTO (BY GILMAR SINISTRO)
TTITLE9=CARA METADE (BY GILMAR SINISTRO)
TTITLE10=SAUDADE  MATADEIRA (BY GILMAR SINISTRO)
TTITLE11=SÓ QUERO TE DIZER (BY GILMAR SINISTRO)
TTITLE12=SAUDADE PESADA (BY GILMAR SINISTRO)
TTITLE13=DIGA QUE AINDA ME AMA (BY GILMAR SINISTRO)
TTITLE14=ENROSCA ENROSCA (BY GILMAR SINISTRO)
TTITLE15=ABRE O CORAÇÃO PRA MIM (BY GILMAR SINISTRO)
EXTD=
EXTT0=
EXTT1=
EXTT2=
EXTT3=
EXTT4=
EXTT5=
EXTT6=
EXTT7=
EXTT8=
EXTT9=
EXTT10=
EXTT11=
EXTT12=
EXTT13=
EXTT14=
EXTT15=
PLAYORDER=
